<svg width="120" height="120" viewBox="0 0 120 120" fill="none" xmlns="http://www.w3.org/2000/svg">
<path fill-rule="evenodd" clip-rule="evenodd" d="M108.76 48.7198C108.76 56.4648 107.593 63.3081 105.259 69.2495C103.031 75.1909 99.8481 80.1774 95.7103 84.2091C99.2115 89.62 100.962 94.8718 100.962 99.9645C100.962 104.314 99.2645 107.922 95.8694 110.786C92.5804 113.651 88.814 115.083 84.5701 115.083C82.1299 115.083 79.9019 114.712 77.886 113.969C75.8702 113.227 73.6952 111.953 71.3611 110.15C69.3453 108.558 67.4355 106.383 65.6319 103.625C63.8282 100.866 62.3959 98.0017 61.335 95.031C57.8338 94.6066 54.3326 93.7048 50.8314 92.3255C51.468 95.7206 51.7863 98.32 51.7863 100.124C51.7863 110.203 46.5345 115.242 36.0309 115.242C27.2249 115.242 21.0182 110.097 17.4109 99.8053C13.8036 89.5139 12 76.9415 12 62.0879C12 52.0088 13.8036 42.5661 17.4109 33.7601C21.1243 24.848 26.7474 17.6865 34.2803 12.2755C41.8132 6.75851 50.9905 4 61.8124 4C70.5123 4 78.4165 5.85669 85.525 9.57007C92.6335 13.1774 98.2566 18.3761 102.394 25.1663C106.638 31.9565 108.76 39.8076 108.76 48.7198ZM84.0628 57.8243C85.7398 54.8296 86.6089 51.52 86.5992 48.165V46.8941C86.2751 41.5959 83.7957 36.5917 79.6358 32.8396C75.4759 29.0875 69.9277 26.8512 64.0536 26.5589H62.6446C58.9249 26.5502 55.2556 27.334 51.9354 28.8466C47.9569 30.6401 44.6105 33.3973 42.2711 36.8093C39.9317 40.2212 38.6917 44.1533 38.6899 48.165C38.6802 51.52 39.5493 54.8296 41.2263 57.8243L36.5636 70.4411C36.279 71.211 36.9969 71.9748 37.7829 71.7385L51.9354 67.4835C55.2556 68.9961 58.9249 69.7799 62.6446 69.7712C67.0923 69.7696 71.4518 68.6512 75.2347 66.5411C79.0175 64.4311 82.0744 61.4128 84.0628 57.8243Z" fill="#5E60CE"/>
</svg>
