<svg width="221" height="132" viewBox="0 0 221 132" fill="none"
    xmlns="http://www.w3.org/2000/svg">
    <path fill-rule="evenodd" clip-rule="evenodd" d="M159.519 54.7198C159.519 62.4648 158.352 69.3081 156.018 75.2495C153.79 81.1909 150.607 86.1774 146.47 90.2091C149.971 95.62 151.721 100.872 151.721 105.964C151.721 110.314 150.024 113.922 146.629 116.786C143.34 119.651 139.573 121.083 135.329 121.083C132.889 121.083 130.661 120.712 128.645 119.969C126.629 119.227 124.455 117.953 122.12 116.15C120.105 114.558 118.195 112.383 116.391 109.625C114.588 106.866 113.155 104.002 112.094 101.031C108.593 100.607 105.092 99.7048 101.591 98.3255C102.227 101.721 102.546 104.32 102.546 106.124C102.546 116.203 97.2938 121.242 86.7902 121.242C77.9842 121.242 71.7775 116.097 68.1702 105.805C64.5629 95.5139 62.7593 82.9415 62.7593 68.0879C62.7593 58.0088 64.5629 48.5661 68.1702 39.7601C71.8836 30.848 77.5067 23.6865 85.0396 18.2755C92.5724 12.7585 101.75 10 112.572 10C121.272 10 129.176 11.8567 136.284 15.5701C143.393 19.1774 149.016 24.3761 153.154 31.1663C157.398 37.9565 159.519 45.8076 159.519 54.7198ZM134.822 63.8243C136.499 60.8296 137.368 57.52 137.358 54.165V52.8941C137.034 47.5959 134.555 42.5917 130.395 38.8396C126.235 35.0875 120.687 32.8512 114.813 32.5589H113.404C109.684 32.5502 106.015 33.334 102.695 34.8466C98.7161 36.6401 95.3697 39.3973 93.0303 42.8093C90.6909 46.2212 89.4509 50.1533 89.4492 54.165C89.4395 57.52 90.3086 60.8296 91.9856 63.8243L87.3228 76.4411C87.0383 77.211 87.7561 77.9748 88.5422 77.7385L102.695 73.4835C106.015 74.9961 109.684 75.7799 113.404 75.7712C117.852 75.7696 122.211 74.6512 125.994 72.5411C129.777 70.4311 132.834 67.4128 134.822 63.8243Z" fill="#5E60CE"/>
    <path d="M177.145 34.5482C183.064 45.447 184.991 52.8921 185.102 65.2943C185.216 78.1398 183.276 85.9232 177.145 97.2116" stroke="#5E60CE" stroke-width="10" stroke-linecap="round" stroke-linejoin="round"/>
    <path d="M197.038 28.5802C203.009 41.9339 204.883 50.555 204.995 65.1826C205.111 80.3428 203.226 89.3396 197.038 103.179" stroke="#5E60CE" stroke-width="10" stroke-linecap="round" stroke-linejoin="round"/>
    <path d="M44.8555 34.5482C38.9357 45.447 37.0089 52.8921 36.8982 65.2943C36.7836 78.1398 38.7241 85.9232 44.8555 97.2116" stroke="#5E60CE" stroke-width="10" stroke-linecap="round" stroke-linejoin="round"/>
    <path d="M24.9624 28.5802C18.991 41.9339 17.1168 50.555 17.0052 65.1826C16.8895 80.3428 18.7736 89.3396 24.9624 103.179" stroke="#5E60CE" stroke-width="10" stroke-linecap="round" stroke-linejoin="round"/>
</svg>
