<svg xmlns="http://www.w3.org/2000/svg" viewBox="0 0 500 500">
    <g id="freepik--background-simple--inject-61">
        <path d="M283.25,96C309,62.05,402,68.43,431.56,149c25.9,70.6-10.35,155-79.95,162S271,305.65,234,316.83,213,350,160.78,366.24C116.83,379.91,72,329.82,91.31,279c22.92-60.29,103.58-41.25,142.69-63.87C279,189.13,250.71,138.94,283.25,96Z" style="fill:#5E60CE"></path>
        <path d="M283.25,96C309,62.05,402,68.43,431.56,149c25.9,70.6-10.35,155-79.95,162S271,305.65,234,316.83,213,350,160.78,366.24C116.83,379.91,72,329.82,91.31,279c22.92-60.29,103.58-41.25,142.69-63.87C279,189.13,250.71,138.94,283.25,96Z" style="fill:#fff;opacity:0.9;isolation:isolate"></path>
    </g>
    <g id="freepik--Shadow--inject-61">
        <ellipse id="freepik--path--inject-61" cx="250" cy="416.24" rx="193.89" ry="11.32" style="fill:#f5f5f5"></ellipse>
    </g>
    <g id="freepik--Bubble--inject-61">
        <path d="M261.63,232,245,221.12V119a8,8,0,0,0-7.69-8H62.68A7.94,7.94,0,0,0,55,119V248.36A7.64,7.64,0,0,0,62.68,256H237.31a7.64,7.64,0,0,0,7.69-7.64V231.05Z" style="fill:#5E60CE"></path>
        <path d="M261.63,232,245,221.12V119a8,8,0,0,0-7.69-8H62.68A7.94,7.94,0,0,0,55,119V248.36A7.64,7.64,0,0,0,62.68,256H237.31a7.64,7.64,0,0,0,7.69-7.64V231.05Z" style="fill:#fff;opacity:0.6000000000000001;isolation:isolate"></path>
        <path d="M261.63,232,245,231.05v94.31a7.64,7.64,0,0,1-7.69,7.64H62.68A7.64,7.64,0,0,1,55,325.36V190.86c9.85-11.56,22.22-24.43,29.5-25.81,13.5-2.55,74,53.78,74,53.78s30.5-32.1,42-35.71c5.29-1.67,24.89,7.71,44.5,18.32v19.68Z" style="fill:#5E60CE"></path>
        <path d="M261.63,232,245,231.05v94.31a7.64,7.64,0,0,1-7.69,7.64H62.68A7.64,7.64,0,0,1,55,325.36V190.86c9.85-11.56,22.22-24.43,29.5-25.81,13.5-2.55,74,53.78,74,53.78s30.5-32.1,42-35.71c5.29-1.67,24.89,7.71,44.5,18.32v19.68Z" style="fill:#fff;opacity:0.30000000000000004;isolation:isolate"></path>
        <path d="M200.13,122c1-.11,2.5-2.62,3.62-2.12s2,3,3.13,3.25,4.12-.38,4.87,0-.25,3.5.63,4.37,4.37,1.38,4.5,1.88-2.13,2.25-1.88,3.5,2.14,2.62,1.88,3.5a22.87,22.87,0,0,1-1.75,2.87c-.38.75.87,3.63.62,4.25s-2.5,1-3.87,2.25-1.25,3.07-1.75,3.85-2.88-.4-4.5,0-2.75,3.14-4.5,3-2.88-3-4.38-3-3.87,1.15-4.5.65-1.12-3.87-2-4.87-3.5-1.13-3.87-2.13,1.37-3.51,1.37-4.75-2.62-4.25-2.62-5,2.87-3.12,3.62-4,0-3.87,1.13-4.87,2.62-.38,3.75-.63,2.5-2.87,3.5-3.12S199.33,122.08,200.13,122Z" style="fill:#5E60CE"></path>
        <path d="M200.13,122c1-.11,2.5-2.62,3.62-2.12s2,3,3.13,3.25,4.12-.38,4.87,0-.25,3.5.63,4.37,4.37,1.38,4.5,1.88-2.13,2.25-1.88,3.5,2.14,2.62,1.88,3.5a22.87,22.87,0,0,1-1.75,2.87c-.38.75.87,3.63.62,4.25s-2.5,1-3.87,2.25-1.25,3.07-1.75,3.85-2.88-.4-4.5,0-2.75,3.14-4.5,3-2.88-3-4.38-3-3.87,1.15-4.5.65-1.12-3.87-2-4.87-3.5-1.13-3.87-2.13,1.37-3.51,1.37-4.75-2.62-4.25-2.62-5,2.87-3.12,3.62-4,0-3.87,1.13-4.87,2.62-.38,3.75-.63,2.5-2.87,3.5-3.12S199.33,122.08,200.13,122Z" style="fill:#fff;opacity:0.8;isolation:isolate"></path>
        <circle cx="201.13" cy="136.38" r="12.37" style="fill:#fff"></circle>
        <path d="M245,247.21v78.15a7.64,7.64,0,0,1-7.69,7.64H62.68A7.64,7.64,0,0,1,55,325.36V302c41.66-11.59,120.22-14.47,126.06-21.3,6.65-7.78-6.6-13.07,3.51-23C192.49,250,229.39,247.8,245,247.21Z" style="fill:#5E60CE"></path>
        <rect x="120.07" y="106" width="4.18" height="2" style="fill:#5E60CE"></rect>
        <rect x="77.01" y="106" width="33.8" height="2" style="fill:#5E60CE"></rect>
        <g style="opacity:0.6000000000000001;isolation:isolate">
            <rect x="120.07" y="106" width="4.18" height="2" style="fill:#fff"></rect>
        </g>
        <g style="opacity:0.6000000000000001;isolation:isolate">
            <rect x="77.01" y="106" width="33.8" height="2" style="fill:#fff"></rect>
        </g>
        <rect x="48" y="252.76" width="2" height="33.8" style="fill:#5E60CE"></rect>
        <g style="opacity:0.30000000000000004;isolation:isolate">
            <rect x="48" y="252.76" width="2" height="33.8" style="fill:#fff"></rect>
        </g>
        <path d="M237,180.28l-20.11,6.37,2.31,6.37L239,185s1.72.81,2.4,1.08S245,185,245,185V173.15Z" style="fill:#ebb376"></path>
        <path d="M225.28,192.2s-21.15,8.34-51.15,11.72l-2.64.28c-1.69.16-3.41.3-5.15.42l-1-2.13-1.47-3.08-1.51-11.22s33.71,4.62,61.37-4.47Z" style="fill:#5E60CE"></path>
        <path d="M225.28,192.2s-21.15,8.34-51.15,11.72l-2.64.28c-1.69.16-3.41.3-5.15.42l-1-2.13-1.47-3.08-1.51-11.22s33.71,4.62,61.37-4.47Z" style="opacity:0.30000000000000004;isolation:isolate"></path>
        <polygon points="220.07 182.62 223.83 195.48 226.61 193.45 223.66 182.6 220.07 182.62" style="fill:#5E60CE"></polygon>
        <path d="M171.49,204.2c-1.69.16-3.41.3-5.15.42l-1-2.13,1-8.49A16.31,16.31,0,0,1,171.49,204.2Z" style="opacity:0.2;isolation:isolate"></path>
        <path d="M141.51,251.33c-2.71,1.47-24.13,4.43-27,2s-.69-43.45,2.48-50.83,19.35-14.22,24.51-10.38S151.68,245.83,141.51,251.33Z" style="fill:#2e353a"></path>
        <path d="M153,333,152.5,306c1.76,8,4.05,17,7,27.05H183l-12.43-64.2-1.46-10.7A146.33,146.33,0,0,0,166.36,240L134,245.52s-11.71,18-3.91,87.48Z" style="fill:#5E60CE"></path>
        <path d="M153,333,152.5,306c1.76,8,4.05,17,7,27.05H183l-12.43-64.2-1.46-10.7A146.33,146.33,0,0,0,166.36,240L134,245.52s-11.71,18-3.91,87.48Z" style="fill:#fff;opacity:0.8;isolation:isolate"></path>
        <path d="M140.25,143.92l-15.54,13s-.64-1.22-1.44-2.86c0,0,0,0,0,0-1.5-3.07-3.53-7.61-2.94-8.42.92-1.25,7.84-7,8.7-7.17.55-.11,4.91,2.1,8,3.74C138.86,143.17,140.25,143.92,140.25,143.92Z" style="fill:#5E60CE"></path>
        <path d="M140.25,143.92l-15.54,13s-.64-1.22-1.44-2.86c0,0,0,0,0,0-1.5-3.07-3.53-7.61-2.94-8.42.92-1.25,7.84-7,8.7-7.17.55-.11,4.91,2.1,8,3.74C138.86,143.17,140.25,143.92,140.25,143.92Z" style="fill:#fff;opacity:0.8;isolation:isolate"></path>
        <path d="M140.25,143.92l-15.54,13s-.64-1.22-1.44-2.86c0,0,0,0,0,0a18,18,0,0,1,5.23-7.34,17.43,17.43,0,0,1,8.56-4.51C138.86,143.17,140.25,143.92,140.25,143.92Z" style="fill:#5E60CE"></path>
        <ellipse cx="134.24" cy="153.08" rx="18.5" ry="6.33" transform="translate(-66.54 119.3) rotate(-39.2)" style="fill:#fff"></ellipse>
        <path d="M155.63,165s2.12,9.93,5.75,13.05" style="fill:none;stroke:#2e353a;stroke-linecap:round;stroke-linejoin:round;stroke-width:0.5px"></path>
        <path d="M132.63,149s2.5-5.12,13.25-4.25,14.25,12.21,10.43,19.54c0,0,.44,10.94,4.19,14.76,0,0-21.95,5.76-32.25,4.07-2.29-.38-5.26-12.58-4.5-20.89C124.48,154.24,127.91,148.46,132.63,149Z" style="fill:#2e353a"></path>
        <path d="M114.52,193l2-15.23s2.07-2.05,2.07-3.38-2.38-8.94-3.42-9.3-6.63,2.29-6.73,4,2.9,8,3.42,8.46l-4,17.9Z" style="fill:#ebb376"></path>
        <polygon points="134 240.68 134 245.52 167 242.99 167 237.27 134 240.68" style="fill:#2e353a"></polygon>
        <rect x="152.39" y="238.76" width="7.24" height="5.49" transform="translate(-20.92 14.88) rotate(-5.12)" style="fill:#5E60CE"></rect>
        <rect x="143.65" y="238.69" width="1.64" height="8.35" transform="translate(-12.2 7.69) rotate(-2.92)" style="fill:#5E60CE"></rect>
        <rect x="143.65" y="238.69" width="1.64" height="8.35" transform="translate(-12.2 7.69) rotate(-2.92)" style="fill:#fff;opacity:0.8;isolation:isolate"></rect>
        <rect x="163.81" y="236.48" width="1.64" height="8.35" transform="translate(-12.05 8.7) rotate(-2.92)" style="fill:#5E60CE"></rect>
        <rect x="163.81" y="236.48" width="1.64" height="8.35" transform="translate(-12.05 8.7) rotate(-2.92)" style="fill:#fff;opacity:0.8;isolation:isolate"></rect>
        <path d="M167.14,237.85l-33,2.85a117.34,117.34,0,0,0-3.51-24.24c-.79-3.16-1.78-6.69-3.05-10.77-.68-2.18-1.43-4.52-2.27-7-.63-1.91-1.31-3.94-2.06-6.08a98,98,0,0,1,13.7-3.31,105.2,105.2,0,0,1,14.82-1.56c6.42,0,13.8.67,13.8.67s1.05.25,1.71,7.06C167.87,201.82,168.46,214.6,167.14,237.85Z" style="fill:#5E60CE"></path>
        <path d="M167.14,237.85l-33,2.85a117.34,117.34,0,0,0-3.51-24.24c-.79-3.16-1.78-6.69-3.05-10.77-.68-2.18-1.43-4.52-2.27-7-.63-1.91-1.31-3.94-2.06-6.08a98,98,0,0,1,13.7-3.31,105.2,105.2,0,0,1,14.82-1.56c6.42,0,13.8.67,13.8.67s1.05.25,1.71,7.06C167.87,201.82,168.46,214.6,167.14,237.85Z" style="opacity:0.30000000000000004;isolation:isolate"></path>
        <path d="M149,195c-8.14-1-10.58-4.52-10.58-4.52,5.16-4.87.87-13.31.87-13.31l9.79,1.83a27.67,27.67,0,0,0-.38,4.13c-.08,5.94,2.61,6,2.61,6C153.07,192.34,149,195,149,195Z" style="fill:#ebb376"></path>
        <path d="M149.12,179a27.67,27.67,0,0,0-.38,4.13c-6.61,0-9.41-6-9.41-6Z" style="opacity:0.2;isolation:isolate"></path>
        <path d="M143.71,151.61c8.51-.46,11.5,3.95,12.6,12.68,1.38,10.92-.62,18.84-11.39,17.08C130.29,179,129.57,152.39,143.71,151.61Z" style="fill:#ebb376"></path>
        <path d="M150.79,164.12a17.81,17.81,0,0,0,2.67,3.39,2.36,2.36,0,0,1-2.2,1.09Z" style="fill:#d58745"></path>
        <path d="M145.54,163.71c.05.7-.28,1.29-.75,1.33s-.88-.5-.94-1.2.28-1.29.75-1.33S145.48,163,145.54,163.71Z" style="fill:#2e353a"></path>
        <path d="M144.4,162.56l1.48-.72S145.22,163.18,144.4,162.56Z" style="fill:#2e353a"></path>
        <path d="M154.21,162.88c0,.7-.28,1.3-.75,1.33s-.88-.5-.94-1.2.28-1.29.74-1.33S154.15,162.18,154.21,162.88Z" style="fill:#2e353a"></path>
        <path d="M153.07,161.73l1.48-.71S153.89,162.36,153.07,161.73Z" style="fill:#2e353a"></path>
        <path d="M145.13,157.83a4.43,4.43,0,0,0-3.62,1.49" style="fill:none;stroke:#2e353a;stroke-linecap:round;stroke-linejoin:round;stroke-width:0.7246800000000001px"></path>
        <path d="M151.3,157.14a4,4,0,0,1,3.43.51" style="fill:none;stroke:#2e353a;stroke-linecap:round;stroke-linejoin:round;stroke-width:0.7246800000000001px"></path>
        <path d="M150.21,172a21.15,21.15,0,0,0-.83,3,5.24,5.24,0,0,1-.56,0c-2.49-.11-3.6-1-4.09-1.92a3.16,3.16,0,0,1-.32-1.49,2.81,2.81,0,0,1,.11-.86,11.71,11.71,0,0,0,4.84,1.23C149.88,172,150.21,172,150.21,172Z" style="fill:#2e353a"></path>
        <path d="M149.36,172l-.27.88c-2.35-.11-4-.51-4.68-1.25a2.81,2.81,0,0,1,.11-.86A11.71,11.71,0,0,0,149.36,172Z" style="fill:#fff"></path>
        <path d="M148.82,175c-2.49-.11-3.6-1-4.09-1.92a8,8,0,0,1,2.74.67A3,3,0,0,1,148.82,175Z" style="fill:#de5753"></path>
        <path d="M135.19,166.47s3.6-7.21,2.7-12.58c0,0,16.49-7.81,18.26,9.26,0,0,.82-15.29-13.83-14.83s-13.42,21.87-5.51,27.83C136.81,176.15,133,171,135.19,166.47Z" style="fill:#2e353a"></path>
        <path d="M136.68,168.19a3.73,3.73,0,0,0-4.21-3.19c-2.62.43-3.58,5.91,3.05,6.86C136.48,172,137,171,136.68,168.19Z" style="fill:#ebb376"></path>
        <path d="M137.89,153.89s9-1.68,13.41,1.49c0,0-4.37-5.5-13.84-2.63Z" style="fill:#2e353a"></path>
        <path d="M130.62,216.46c-.79-3.16-1.78-6.69-3.05-10.77a10.41,10.41,0,0,1,1.29-2.28S133.18,209.64,130.62,216.46Z" style="opacity:0.2;isolation:isolate"></path>
        <path d="M128.83,209.89c-12.08,28.86-24.91,24.69-26.32,18.14-1.34-6.2,4.49-35,4.49-35h9l-2.14,19.4-.34,3.09.72-2c2-5.72,7.8-21.45,9.09-20.67C130.63,197.18,128.83,209.89,128.83,209.89Z" style="fill:#5E60CE"></path>
        <path d="M128.83,209.89c-12.08,28.86-24.91,24.69-26.32,18.14-1.34-6.2,4.49-35,4.49-35h9l-2.14,19.4-.34,3.09.72-2c2-5.72,7.8-21.45,9.09-20.67C130.63,197.18,128.83,209.89,128.83,209.89Z" style="opacity:0.30000000000000004;isolation:isolate"></path>
        <path d="M112.66,222.92c.68-1.67.86-7.43.86-7.43l.72-2C115.29,217.29,113.12,222,112.66,222.92Z" style="opacity:0.2;isolation:isolate"></path>
        <polygon points="107.17 190.33 105.83 194 117 194 116.35 190.9 107.17 190.33" style="fill:#5E60CE"></polygon>
        <path d="M130.91,191.38s9.56,7.75,18.45,7.62,12-10.12,12-10.12S147.58,184.79,130.91,191.38Z" style="fill:#ebb376"></path>
        <path d="M123.67,163.33s6-13.85,21.44-18.63l.48-3.7s-7.54.48-16.56,8.2-7.11,14.92-7.11,14.92Z" style="fill:#fff"></path>
        <circle cx="150.81" cy="209.94" r="2.92" style="fill:#2e353a"></circle>
        <circle cx="150.81" cy="202.94" r="2.92" style="fill:#2e353a"></circle>
        <path d="M150.5,199v6.56a1.85,1.85,0,0,0,0,1.94V214" style="fill:none;stroke:#2e353a;stroke-linecap:round;stroke-linejoin:round"></path>
        <path d="M136.74,187.9s2.42,21.1-3.83,40.1H131s3-22-.76-38.33Z" style="fill:#2e353a"></path>
        <path d="M159.6,333c-.35-19.36-5-55.79-5-55.79A253.89,253.89,0,0,0,152.5,306c1.76,8,4.05,17,7,27.05Z" style="opacity:0.2;isolation:isolate"></path>
    </g>
    <g id="freepik--Pillow-2--inject-61">
        <path d="M187.27,390.08c2.1-2.7,12.95-5.8,12.95-5.8s18.3-7.07,35-10.44,61.52,9.31,61.52,9.31,22.72-3.82,30.6,6.31-33.77,20.82-70,22.76-57.1-12.69-57.1-12.69S182.52,396.18,187.27,390.08Z" style="fill:#5E60CE"></path>
        <path d="M187.27,390.08c2.1-2.7,12.95-5.8,12.95-5.8s18.3-7.07,35-10.44,61.52,9.31,61.52,9.31,22.72-3.82,30.6,6.31-33.77,20.82-70,22.76-57.1-12.69-57.1-12.69S182.52,396.18,187.27,390.08Z" style="fill:#fff;opacity:0.8;isolation:isolate"></path>
    </g>
    <g id="freepik--Pillow-1--inject-61">
        <path d="M468.48,393.07c-2.22-2.63-13.69-5.66-13.69-5.66s-19.33-6.9-37-10.19-65,9.09-65,9.09-24-3.73-32.34,6.16,35.69,20.31,74,22.21,60.32-12.39,60.32-12.39S473.5,399,468.48,393.07Z" style="fill:#5E60CE"></path>
        <path d="M468.48,393.07c-2.22-2.63-13.69-5.66-13.69-5.66s-19.33-6.9-37-10.19-65,9.09-65,9.09-24-3.73-32.34,6.16,35.69,20.31,74,22.21,60.32-12.39,60.32-12.39S473.5,399,468.48,393.07Z" style="fill:#fff;opacity:0.6000000000000001;isolation:isolate"></path>
    </g>
    <g id="freepik--Character--inject-61">
        <g id="freepik--group--inject-61">
            <path d="M280.15,230.42l-4.82,18.72c-.17.65-.95.83-1.59.67l-8.8-2.27c-.65-.17-1.4-.74-1.23-1.39l4.82-18.72a1.93,1.93,0,0,1,1.89-1.19l8.81,2.26A1.8,1.8,0,0,1,280.15,230.42Z" style="fill:#5E60CE"></path>
            <path d="M280.15,230.42l-4.82,18.72c-.17.65-.95.83-1.59.67l-8.8-2.27c-.65-.17-1.4-.74-1.23-1.39l4.82-18.72a1.93,1.93,0,0,1,1.89-1.19l8.81,2.26A1.8,1.8,0,0,1,280.15,230.42Z" style="opacity:0.5;isolation:isolate"></path>
            <path d="M279.18,230.17l-4.82,18.72c-.17.65-.95.83-1.59.67l-7.83-2c-.65-.17-1.4-.74-1.23-1.39l4.82-18.72a1.93,1.93,0,0,1,1.89-1.19l7.84,2A1.79,1.79,0,0,1,279.18,230.17Z" style="fill:#fff;opacity:0.30000000000000004;isolation:isolate"></path>
            <path d="M279.06,258.33l-10.61-10.09,1.72-5.45s-.57-10-1.56-9.88-5.32,5.58-7.33,8.45,2,12.53,2,12.53l10.9,10.75Z" style="fill:#b97964"></path>
            <path d="M345.53,284.09l-1.13,6.39L342.18,303q-4-.9-7.84-2.1C290.94,287.75,266,258.33,266,258.33l5.72-8.28C311,281,345.53,284.09,345.53,284.09Z" style="fill:#5E60CE"></path>
            <path d="M345.53,284.09l-1.13,6.39L342.18,303q-4-.9-7.84-2.1C290.94,287.75,266,258.33,266,258.33l5.72-8.28C311,281,345.53,284.09,345.53,284.09Z" style="opacity:0.5;isolation:isolate"></path>
            <path d="M344.4,290.48,342.18,303q-4-.9-7.84-2.1C336.25,295.5,341.44,292.07,344.4,290.48Z" style="opacity:0.2;isolation:isolate"></path>
            <path d="M397.38,290a202,202,0,0,0-5.74,29.68c-.86,7-1.37,13.65-1.69,19.7-.74,14.18-.43,25-.86,28.68-7-.48-33.63-2.29-48.12-3.35-4.84-37.85.7-62.13,3.93-72.27a9.18,9.18,0,0,1,7.62-6.32c1.75-.22,3.79-.44,5.92-.56.83,0,1.65-.08,2.49-.09a177.12,177.12,0,0,1,20.46,1.42c1.29.15,2.6.34,3.86.55A118.48,118.48,0,0,1,397.38,290Z" style="fill:#5E60CE"></path>
            <path d="M397.38,290a202,202,0,0,0-5.74,29.68c-.86,7-1.37,13.65-1.69,19.7-.74,14.18-.43,25-.86,28.68-7-.48-33.63-2.29-48.12-3.35-4.84-37.85.7-62.13,3.93-72.27a9.18,9.18,0,0,1,7.62-6.32c1.75-.22,3.79-.44,5.92-.56.83,0,1.65-.08,2.49-.09a177.12,177.12,0,0,1,20.46,1.42c1.29.15,2.6.34,3.86.55A118.48,118.48,0,0,1,397.38,290Z" style="fill:#fff;opacity:0.6000000000000001;isolation:isolate"></path>
            <path d="M356.76,284s-11.65,17.54-14.6,95l-7.46-5.47S329.4,327,345.53,284Z" style="fill:#5E60CE"></path>
            <path d="M356.76,284s-11.65,17.54-14.6,95l-7.46-5.47S329.4,327,345.53,284Z" style="opacity:0.5;isolation:isolate"></path>
            <path d="M341,364.75s-67-18.69-75.39,4.82,52.39,42.24,86,43.39,47.38-22.45,37.46-44.88Z" style="fill:#5E60CE"></path>
            <path d="M341,364.75s-67-18.69-75.39,4.82,52.39,42.24,86,43.39,47.38-22.45,37.46-44.88Z" style="opacity:0.2;isolation:isolate"></path>
            <path d="M386.67,286.27s-22.92,51.51.65,98.66c0,0,6.86-2.18,10.06-6.39,0,0-3.69-44.1,2.81-88.14C400.19,290.4,389.89,284.81,386.67,286.27Z" style="fill:#5E60CE"></path>
            <path d="M397.1,321.21a448.63,448.63,0,0,0,.28,57.33c-3.21,4.21-10.05,6.39-10.05,6.39-23.58-47.15-.66-98.66-.66-98.66,3.21-1.46,13.52,4.13,13.52,4.13-.92,6.25-1.64,12.5-2.18,18.63C397.63,313.16,397.33,317.23,397.1,321.21Z" style="opacity:0.5;isolation:isolate"></path>
            <path d="M382.59,297.87s13.64-8.69,11.48-14.5c-3.3-8.89-26.88-8.29-36.42-3.87-9.9,4.59-5.47,16.73-5.47,16.73,2.07-6.51,5.17-9.44,8.75-10.72,2.28-.82,4.76,3.13,9.85,1.41C388.35,281,382.59,297.87,382.59,297.87Z" style="fill:#5E60CE"></path>
            <path d="M384.62,262.29a30,30,0,0,0-2.85,7.08c-.51,2.86-2.56,10.85-10.09,5.76S372.58,255.49,384.62,262.29Z" style="fill:#2e353a"></path>
            <path d="M381,263.69c-1.74,6.5-3.88,18.47.43,23.18A20.5,20.5,0,0,1,365.2,292c-5.66-.51-5.67-4.49-4.26-6.59,7.47-1.24,7.66-6.7,6.73-11.91Z" style="fill:#b97964"></path>
            <path d="M375.56,267.71l-7.87,5.82a22.72,22.72,0,0,1,.37,3.68c2.84-.21,6.89-3,7.4-5.93A10,10,0,0,0,375.56,267.71Z" style="opacity:0.2;isolation:isolate"></path>
            <path d="M383.54,255.2c-2.21,8.67-3.09,13.85-8.4,17.47-9.94,6.06-18.48,1.86-18.45-9.79-.36-8.25,3.36-21,12.62-22.87a12.2,12.2,0,0,1,14.23,15.19Z" style="fill:#b97964"></path>
            <path d="M369.76,255.08c-.09.72-.62,1.22-1.1,1.13s-.73-.75-.59-1.46.63-1.22,1.09-1.12S369.89,254.36,369.76,255.08Z" style="fill:#2e353a"></path>
            <path d="M361.69,253.52c-.09.72-.64,1.22-1.1,1.13s-.73-.75-.6-1.46.64-1.22,1.1-1.12S361.82,252.85,361.69,253.52Z" style="fill:#2e353a"></path>
            <path d="M364.18,254.37a25.49,25.49,0,0,1-4.59,5.45,4.25,4.25,0,0,0,3.31,1.31Z" style="fill:#a24e3f"></path>
            <path d="M372.77,253a.45.45,0,0,1-.38-.24,3.43,3.43,0,0,0-2.41-1.92.43.43,0,0,1-.37-.47.42.42,0,0,1,.47-.37h0a4.26,4.26,0,0,1,3.08,2.38.42.42,0,0,1-.18.57h0A.45.45,0,0,1,372.77,253Z" style="fill:#2e353a"></path>
            <path d="M358.76,250.07a.39.39,0,0,1-.26,0,.42.42,0,0,1-.09-.59h0a4.22,4.22,0,0,1,3.47-1.77.43.43,0,0,1,.4.45h0a.45.45,0,0,1-.46.4h0A3.45,3.45,0,0,0,359.1,250,.4.4,0,0,1,358.76,250.07Z" style="fill:#2e353a"></path>
            <path d="M363.83,242.77c3.86-1.79,8.56-.06,11.37,1.39S377,249.5,377,249.5s-.78,11.67,3.26,13.8l1.2,3.65s8.8-6.09,7.86-17.37-16.14-12.2-21-11.09S363.83,242.77,363.83,242.77Z" style="fill:#2e353a"></path>
            <path d="M385.64,265.64a8.48,8.48,0,0,1-5.92,2.67c-3,.08-3.74-2.76-2.32-5.2,1.3-2.15,4.41-4.87,7.11-3.76S387.5,263.6,385.64,265.64Z" style="fill:#b97964"></path>
            <path d="M362.61,263.63a24.92,24.92,0,0,1,.28,3.57l.62.1c2.84.41,4.29-.34,5-1.29a3.63,3.63,0,0,0,.69-1.6,3.43,3.43,0,0,0,.07-1c-1.64.68-4.3.5-5.73.34C363,263.7,362.61,263.63,362.61,263.63Z" style="fill:#2e353a"></path>
            <path d="M363.57,263.75l.11,1.06c2.67.38,4.6.29,5.55-.4a3.43,3.43,0,0,0,.07-1C367.66,264.09,365,263.91,363.57,263.75Z" style="fill:#fff"></path>
            <path d="M363.51,267.3c2.84.41,4.29-.34,5-1.29a9.15,9.15,0,0,0-3.23.17A3.45,3.45,0,0,0,363.51,267.3Z" style="fill:#de5753"></path>
            <path d="M377.45,240.36c.52-2.22.16-4.43-5-7.65a4.64,4.64,0,0,1,.84,2.89s-1.84-2.92-6.53-2.72-10.29,2.39-9.37,8.43,9.1,5.69,9.1,5.69-2.43-.77-3-2.28c0,0,4,2.31,10.47,1.17a5.75,5.75,0,0,1-4-1.45S376.38,244.86,377.45,240.36Z" style="fill:#2e353a"></path>
            <path d="M273.27,401.43a3.06,3.06,0,0,1-1.06-1.52,1.15,1.15,0,0,1,.4-1.09.73.73,0,0,1,.67-.2c1.13.34,2.25,3.58,2.36,3.95a.18.18,0,0,1-.06.21.23.23,0,0,1-.25,0A12.94,12.94,0,0,1,273.27,401.43Zm.18-2.23a.61.61,0,0,0-.26-.15.22.22,0,0,0-.26.07.76.76,0,0,0-.29.74,4.82,4.82,0,0,0,2.4,2.31A9.17,9.17,0,0,0,273.45,399.2Z" style="fill:#5E60CE"></path>
            <path d="M275.28,402.8l0-.1c-.39-1-.49-3.62.32-4.19a.73.73,0,0,1,.9.08,1.25,1.25,0,0,1,.53.81c.26,1.32-1.3,3.29-1.4,3.38a.2.2,0,0,1-.21.06Zm1-3.81-.07-.06c-.24-.17-.34-.09-.39-.06-.48.33-.56,2.17-.31,3.29.42-.6,1.2-1.86,1-2.7a.84.84,0,0,0-.27-.47Z" style="fill:#5E60CE"></path>
            <path d="M398,309c-.38,4.13-.68,8.2-.91,12.18-4.81-5.31-3.64-13.79-3.64-13.79Z" style="opacity:0.2;isolation:isolate"></path>
            <path d="M429.33,269l3.15-8.63-11,.85s-1.54,8,2.59,9Z" style="fill:#b97964"></path>
            <polygon points="430.19 253.26 422.62 254.23 421.48 261.3 432.48 260.43 430.19 253.26" style="fill:#b97964"></polygon>
            <path d="M423.17,269.9l1,10.84,8.29-1.05s-2.4-9.7-2.38-12.74S423.17,269.9,423.17,269.9Z" style="fill:#b97964"></path>
            <path d="M400.19,290.4c7.93,4,24.28,14.34,24.28,14.34l-1.72-29.82,9.18-.52s14.91,37,4.87,46.48-41.58-6.81-41.58-6.81-3.56-7.58-.92-14.62S400.19,290.4,400.19,290.4Z" style="fill:#5E60CE"></path>
            <path d="M400.19,290.4c7.93,4,24.28,14.34,24.28,14.34l-1.72-29.82,9.18-.52s14.91,37,4.87,46.48-41.58-6.81-41.58-6.81-3.56-7.58-.92-14.62S400.19,290.4,400.19,290.4Z" style="opacity:0.5;isolation:isolate"></path>
            <path d="M344.06,417.12a3,3,0,0,1-.35,1.82,1.12,1.12,0,0,1-1,.47.66.66,0,0,1-.61-.34c-.55-1,1-4.1,1.17-4.44a.18.18,0,0,1,.19-.11.24.24,0,0,1,.19.17A12.7,12.7,0,0,1,344.06,417.12Zm-1.72,1.43a.73.73,0,0,0,.07.29.25.25,0,0,0,.24.14.74.74,0,0,0,.73-.32,4.77,4.77,0,0,0,0-3.33A9.45,9.45,0,0,0,342.34,418.55Z" style="fill:#5E60CE"></path>
            <polygon points="327.37 392.07 339.22 400.76 344.91 404.93 341.19 411.42 335.42 408.26 321.31 400.54 327.37 392.07" style="fill:#b97964"></polygon>
            <path d="M339.36,411.22l3.58-7.89a.85.85,0,0,1,1.15-.41l3.86,1.89s5.36,2.17,6,3.91c2,5.1-5.49,22.75-7.82,22.76-.85,0-1.36-1.32-1.48-2.16-.38-2.68-.44-9.4-.78-11.63-.4-2.6-3-4.6-4.25-5.4A.86.86,0,0,1,339.36,411.22Z" style="fill:#2e353a"></path>
            <path d="M343.63,414.73l-.05.09c-.43,1-2.24,2.88-3.22,2.7a.71.71,0,0,1-.56-.7,1.24,1.24,0,0,1,.2-.95c.77-1.11,3.26-1.37,3.39-1.36a.19.19,0,0,1,.19.11A.22.22,0,0,1,343.63,414.73Zm-3.41,1.95v.1c0,.29.17.3.23.32.57.11,1.94-1.12,2.56-2.09-.72.12-2.17.45-2.65,1.15a.8.8,0,0,0-.15.52Z" style="fill:#5E60CE"></path>
            <polygon points="327.37 392.07 339.22 400.76 335.42 408.26 321.31 400.54 327.37 392.07" style="opacity:0.2;isolation:isolate"></polygon>
            <polygon points="332.71 408.75 328.82 407.88 335.29 395.52 338.9 399.21 332.71 408.75" style="fill:#5E60CE"></polygon>
            <polygon points="332.71 408.75 328.82 407.88 335.29 395.52 338.9 399.21 332.71 408.75" style="fill:#fff;opacity:0.6000000000000001;isolation:isolate"></polygon>
            <polygon points="302.85 407.03 288.35 409.42 281.38 410.57 279.35 403.37 285.65 401.46 301.03 396.78 302.85 407.03" style="fill:#b97964"></polygon>
            <path d="M280.77,402.2l3.14,8.07a.86.86,0,0,1-.52,1.12l-4,1.43s-5.31,2.32-7,1.58c-5-2.16-12.41-19.84-10.78-21.51.59-.61,1.89-.05,2.58.46,2.17,1.6,7,6.26,8.85,7.57,2.14,1.54,5.41,1.06,6.83.75A.84.84,0,0,1,280.77,402.2Z" style="fill:#2e353a"></path>
            <polygon points="302.85 407.03 288.35 409.42 285.65 401.46 301.03 396.78 302.85 407.03" style="opacity:0.2;isolation:isolate"></polygon>
            <path d="M288.15,400s60.28-35.56,80.68-34.61,22.18,21.25,13.76,32.5-24,14-24,14,10.59-15,9.06-19.16-7.37,9.94-7.37,9.94-37.34,4.89-69.88,7.65Z" style="fill:#5E60CE"></path>
            <polygon points="287.19 399.04 290.54 396.79 294.84 410 289.68 410 287.19 399.04" style="fill:#5E60CE"></polygon>
            <polygon points="287.19 399.04 290.54 396.79 294.84 410 289.68 410 287.19 399.04" style="fill:#fff;opacity:0.6000000000000001;isolation:isolate"></polygon>
        </g>
    </g>
    <g id="freepik--Laptop--inject-61">
        <path d="M204,412v2.18a2.61,2.61,0,0,1-2.43,2.82H121.18c-1.48,0-3.18-1.35-3.18-2.82V412Z" style="fill:#5E60CE"></path>
        <path d="M174,412v2.18a2.62,2.62,0,0,1-2.44,2.82H121.18c-1.48,0-3.18-1.35-3.18-2.82V412Z" style="opacity:0.2;isolation:isolate"></path>
        <path d="M171.56,415H118.45a4.33,4.33,0,0,1-3.86-2.85l-12.18-38.21a2.11,2.11,0,0,1,2-2.94h53.11a4.44,4.44,0,0,1,3.86,2.94L173.6,412.1A2.08,2.08,0,0,1,171.56,415Z" style="fill:#5E60CE"></path>
        <path d="M169.56,415H118.45a4.33,4.33,0,0,1-3.86-2.85l-12.18-38.21a2.11,2.11,0,0,1,2-2.94h51.11a4.44,4.44,0,0,1,3.86,2.94L171.6,412.1A2.08,2.08,0,0,1,169.56,415Z" style="fill:#fff;opacity:0.2;isolation:isolate"></path>
    </g>
</svg>